<svg width="80" height="80" viewBox="0 0 80 80" fill="none" xmlns="http://www.w3.org/2000/svg">
<mask id="mask0_2114_223" style="mask-type:alpha" maskUnits="userSpaceOnUse" x="0" y="0" width="80" height="80">
<rect width="80" height="80" fill="#D9D9D9"/>
</mask>
<g mask="url(#mask0_2114_223)">
<path d="M29.25 70C23.8611 70 19.3056 68.1389 15.5833 64.4167C11.8611 60.6944 10 56.1389 10 50.75V29.25C10 23.8611 11.8611 19.3056 15.5833 15.5833C19.3056 11.8611 23.8611 10 29.25 10H50.75C56.1389 10 60.6944 11.8611 64.4167 15.5833C68.1389 19.3056 70 23.8611 70 29.25V50.75C70 56.1389 68.1389 60.6944 64.4167 64.4167C60.6944 68.1389 56.1389 70 50.75 70H29.25ZM36.5833 45.75L30.25 39.4167C29.75 38.9167 29.1528 38.6806 28.4583 38.7083C27.7639 38.7361 27.1667 39 26.6667 39.5C26.1667 40 25.9167 40.5972 25.9167 41.2917C25.9167 41.9861 26.1667 42.5833 26.6667 43.0833L34.8333 51.1667C35.3333 51.6667 35.9167 51.9167 36.5833 51.9167C37.25 51.9167 37.8333 51.6667 38.3333 51.1667L54.8333 34.6667C55.3333 34.1667 55.5833 33.5694 55.5833 32.875C55.5833 32.1806 55.3333 31.5833 54.8333 31.0833C54.3333 30.5833 53.7361 30.3333 53.0417 30.3333C52.3472 30.3333 51.75 30.5833 51.25 31.0833L36.5833 45.75ZM29.25 65H50.75C54.6944 65 58.0556 63.6111 60.8333 60.8333C63.6111 58.0556 65 54.6944 65 50.75V29.25C65 25.3056 63.6111 21.9444 60.8333 19.1667C58.0556 16.3889 54.6944 15 50.75 15H29.25C25.3056 15 21.9444 16.3889 19.1667 19.1667C16.3889 21.9444 15 25.3056 15 29.25V50.75C15 54.6944 16.3889 58.0556 19.1667 60.8333C21.9444 63.6111 25.3056 65 29.25 65Z" fill="#4FE703"/>
</g>
</svg>
